# xmcd CD database file
#
# Track frame offsets:
#	150
#	28121
#	42123
#	65143
#	88351
#	105051
#	116292
#	130662
#	151064
#	162969
#	186494
#	200378
#	216506
#	243738
#	260398
#	275107
#	293809
#	310597
#
# Disc length: 4283 seconds
#
# Revision: 0
# Processed by: cddbd v1.5.2PL0 Copyright (c) Steve Scherf et al.
# Submitted via: CDex 1.51
#
DISCID=0710b912
DTITLE=Diversos - 100 Anos de Frevo-PE.
DYEAR=2007
DGENRE=Carnaval de Pe
TTITLE0=Vassouvinhas-Renato Asfora
TTITLE1=Vassourinhas-Frevo de Rua
TTITLE2=Frevo de Bloco
TTITLE3=Maracatu Nacao
TTITLE4=Frevo Cancao
TTITLE5=Caboclinhos
TTITLE6=Frevo Sanfonado
TTITLE7=Frevo de Bloco
TTITLE8=Frevo Cancao
TTITLE9=Maracatu Nacao
TTITLE10=Caboclinhos
TTITLE11=Frevo de Rua
TTITLE12=Frevo de Bloco
TTITLE13=Frevo Cancao
TTITLE14=Frevo de Rua
TTITLE15=Caboclinhos
TTITLE16=Maracatu Nacao
TTITLE17=Frevo de Rua
EXTD=YEAR: 2007
EXTT0=
EXTT1=
EXTT2=
EXTT3=
EXTT4=
EXTT5=
EXTT6=
EXTT7=
EXTT8=
EXTT9=
EXTT10=
EXTT11=
EXTT12=
EXTT13=
EXTT14=
EXTT15=
EXTT16=
EXTT17=
PLAYORDER=
